<?xml version="1.0" encoding="utf-8"?>
<!-- Generator: Adobe Illustrator 16.0.0, SVG Export Plug-In . SVG Version: 6.00 Build 0)  -->
<!DOCTYPE svg PUBLIC "-//W3C//DTD SVG 1.1//EN" "http://www.w3.org/Graphics/SVG/1.1/DTD/svg11.dtd">
<svg version="1.1" id="Capa_1" xmlns="http://www.w3.org/2000/svg" xmlns:xlink="http://www.w3.org/1999/xlink" x="0px" y="0px"
	 width="207.75px" height="54px" viewBox="100.36 285.655 207.75 54" enable-background="new 100.36 285.655 207.75 54"
	 xml:space="preserve">
<g>
	<path fill="#000100" d="M105.327,295.19c0-0.202-0.014-0.397-0.014-0.595c0-0.195,0.014-0.4,0.014-0.595
		c-0.369-0.082-0.762-0.113-1.128-0.113c-1.434,0-2.589,1.159-2.589,2.546c0,1.43,1.218,2.276,2.558,2.276
		c0.405,0,0.802-0.07,1.202-0.167c0-0.195-0.014-0.391-0.014-0.585c0-0.188,0.014-0.383,0.014-0.581h-0.099l-0.322,0.863
		c-0.303,0.137-0.536,0.188-0.868,0.188c-0.783,0-1.73-0.508-1.73-2.147c0-1.458,0.752-2.111,1.73-2.111
		c0.303,0,0.543,0.059,0.839,0.202l0.303,0.818H105.327L105.327,295.19z"/>
	<path fill-rule="evenodd" clip-rule="evenodd" fill="#000100" d="M109.36,298.709c1.441,0,2.304-1.135,2.304-2.57
		c0-1.316-0.858-2.252-2.189-2.252c-1.46,0-2.366,1.011-2.366,2.455C107.11,297.513,107.855,298.709,109.36,298.709L109.36,298.709z
		 M109.433,298.47c-1.056,0-1.585-0.987-1.585-2.476c0-1.028,0.541-1.87,1.55-1.87c1.194,0,1.528,1.155,1.528,2.358
		C110.926,297.471,110.535,298.47,109.433,298.47L109.433,298.47z"/>
	<path fill-rule="evenodd" clip-rule="evenodd" fill="#000100" d="M112.887,298.623c0.282-0.028,0.564-0.056,0.846-0.056
		c0.311,0,0.616,0.028,0.927,0.056v-0.101l-0.374-0.131c-0.202-0.066-0.271-0.139-0.271-0.304c0-0.484,0.136-2.527,0.233-3.484
		h0.017c0.585,1.329,1.192,2.645,1.707,4.021h0.094c0.543-1.324,1.093-2.572,1.73-3.938h0.014c0.049,0.353,0.391,3.106,0.391,3.468
		c0,0.061-0.073,0.167-0.318,0.247l-0.355,0.122v0.101c0.332-0.028,0.666-0.056,1.004-0.056c0.341,0,0.682,0.028,1.016,0.056v-0.101
		l-0.391-0.113c-0.171-0.047-0.263-0.099-0.296-0.322c-0.08-0.456-0.397-3.099-0.397-3.6c0-0.129,0.056-0.172,0.353-0.292l0.32-0.12
		v-0.101c-0.487,0.026-0.964,0.052-1.392,0.057c-0.477,1.138-0.978,2.271-1.549,3.379c-0.505-1.117-1.006-2.241-1.453-3.379
		c-0.435-0.005-0.922-0.031-1.385-0.057v0.101l0.412,0.153c0.139,0.052,0.19,0.129,0.19,0.259c0,0.539-0.19,2.398-0.372,3.524
		c-0.035,0.24-0.063,0.277-0.317,0.374l-0.383,0.136V298.623L112.887,298.623z"/>
	<path fill-rule="evenodd" clip-rule="evenodd" fill="#000100" d="M123.545,296.798h-1.632l0.834-1.919L123.545,296.798
		L123.545,296.798z M120.366,298.623c0.268-0.028,0.536-0.056,0.802-0.056c0.293,0,0.574,0.028,0.858,0.056v-0.101l-0.625-0.223
		c0.104-0.404,0.216-0.835,0.414-1.202c0.306-0.009,0.6-0.017,0.905-0.017c0.303,0,0.616,0.007,0.917,0.017
		c0.104,0.216,0.336,0.896,0.423,1.202c-0.216,0.087-0.531,0.181-0.712,0.223v0.101c0.327-0.028,0.647-0.056,0.974-0.056
		c0.383,0,0.759,0.028,1.143,0.056v-0.101l-0.609-0.211c-0.616-1.467-1.267-2.975-1.848-4.481h-0.157
		c-0.522,1.305-1.303,2.97-1.931,4.453c-0.176,0.094-0.378,0.176-0.553,0.24V298.623L120.366,298.623z"/>
	<path fill-rule="evenodd" clip-rule="evenodd" fill="#000100" d="M127.738,294.28c0.219,0,0.435-0.009,0.665-0.009
		c0.682,0,1.122,0.275,1.122,0.915c0,0.795-0.621,0.903-1.295,0.903h-0.491V294.28L127.738,294.28z M126.341,298.623
		c0.346-0.028,0.767-0.056,1.133-0.056c0.254,0,0.741,0.028,1.051,0.056v-0.101l-0.579-0.197c-0.188-0.057-0.209-0.224-0.209-1.164
		v-0.834h0.555c0.452,0.59,1.098,1.517,1.559,2.297c0.181-0.014,0.362-0.028,0.538-0.028c0.165,0,0.336,0.014,0.506,0.028v-0.101
		c-0.407-0.073-0.442-0.122-0.863-0.752l-1-1.491c0.668-0.11,1.19-0.456,1.19-1.189c0-0.724-0.625-1.115-1.58-1.115
		c-0.515,0-0.927,0.057-1.303,0.057c-0.393,0-0.731-0.031-1-0.057v0.101l0.607,0.205c0.16,0.047,0.181,0.099,0.181,0.781v2.619
		c0,0.56-0.028,0.588-0.233,0.654l-0.555,0.188V298.623L126.341,298.623z"/>
	<path fill="#000100" d="M135.878,295.19c0-0.202-0.017-0.397-0.017-0.595c0-0.195,0.017-0.4,0.017-0.595
		c-0.372-0.082-0.762-0.113-1.129-0.113c-1.434,0-2.589,1.159-2.589,2.546c0,1.43,1.218,2.276,2.559,2.276
		c0.404,0,0.802-0.07,1.201-0.167c0-0.195-0.016-0.391-0.016-0.585c0-0.188,0.016-0.383,0.016-0.581h-0.101l-0.32,0.863
		c-0.303,0.137-0.536,0.188-0.868,0.188c-0.783,0-1.73-0.508-1.73-2.147c0-1.458,0.752-2.111,1.73-2.111
		c0.304,0,0.543,0.059,0.839,0.202l0.304,0.818H135.878L135.878,295.19z"/>
	<path fill-rule="evenodd" clip-rule="evenodd" fill="#000100" d="M140.432,296.798h-1.629l0.833-1.919L140.432,296.798
		L140.432,296.798z M137.253,298.623c0.266-0.028,0.536-0.056,0.804-0.056c0.29,0,0.572,0.028,0.854,0.056v-0.101l-0.623-0.223
		c0.101-0.404,0.219-0.835,0.412-1.202c0.306-0.009,0.604-0.017,0.908-0.017s0.616,0.007,0.919,0.017
		c0.101,0.216,0.332,0.896,0.421,1.202c-0.219,0.087-0.529,0.181-0.71,0.223v0.101c0.327-0.028,0.642-0.056,0.969-0.056
		c0.383,0,0.762,0.028,1.145,0.056v-0.101l-0.606-0.211c-0.616-1.467-1.27-2.975-1.848-4.481h-0.16
		c-0.52,1.305-1.305,2.97-1.933,4.453c-0.174,0.094-0.376,0.176-0.55,0.24V298.623L137.253,298.623z"/>
	<path fill-rule="evenodd" clip-rule="evenodd" fill="#000100" d="M147.302,295.232c0-0.317,0.021-0.637,0.042-0.961
		c0.153-0.028,0.313-0.059,0.484-0.059c1.093,0,1.935,0.632,1.935,2.081c0,1.679-0.842,2.093-1.862,2.093
		c-0.16,0-0.362-0.017-0.557-0.031c-0.042-0.46-0.021-0.247-0.042-0.802V295.232L147.302,295.232z M146.691,297.68
		c0,0.56-0.026,0.588-0.229,0.654l-0.56,0.188v0.101c0.261-0.028,0.508-0.056,0.762-0.056c0.376,0,0.736,0.056,1.563,0.056
		c1.404,0,2.231-1.065,2.231-2.309c0-1.573-1.305-2.34-2.377-2.34c-0.578,0-1.065,0.057-1.31,0.057c-0.285,0-0.56-0.031-0.87-0.057
		v0.101l0.609,0.205c0.157,0.047,0.179,0.099,0.179,0.781V297.68L146.691,297.68z"/>
	<path fill-rule="evenodd" clip-rule="evenodd" fill="#000100" d="M152.588,297.68c0,0.56-0.03,0.588-0.232,0.654l-0.56,0.188v0.101
		c0.524-0.028,1.218-0.056,1.855-0.056c0.404,0,1.521,0.028,1.897,0.056v-0.552c0-0.207,0.031-0.426,0.042-0.637h-0.099
		c-0.131,0.43-0.211,0.663-0.298,0.771c-0.073,0.084-0.179,0.094-0.955,0.094c-0.325,0-0.668-0.021-1.009-0.031
		c-0.014-0.306-0.035-0.637-0.035-0.969v-0.985h0.755c0.875,0,0.955,0.012,1.02,0.169l0.188,0.555h0.101
		c-0.005-0.303-0.014-0.579-0.014-0.877c0-0.271,0.009-0.546,0.014-0.818h-0.101l-0.188,0.513c-0.065,0.16-0.146,0.174-1.02,0.174
		h-0.755v-0.889c0-0.306,0.021-0.571,0.035-0.826c0.271-0.012,0.602-0.016,1.021-0.016c0.834,0,0.891,0,0.966,0.202l0.188,0.545
		h0.099c-0.005-0.167-0.021-0.414-0.021-0.522c0-0.11,0.017-0.372,0.021-0.55c-0.637,0.026-1.317,0.057-2.003,0.057
		c-0.553,0-1.103-0.031-1.705-0.057v0.101l0.611,0.205c0.16,0.047,0.181,0.099,0.181,0.781V297.68L152.588,297.68z"/>
	<path fill-rule="evenodd" clip-rule="evenodd" fill="#000100" d="M160.356,297.68c0,0.56-0.03,0.588-0.232,0.654l-0.56,0.188v0.101
		c0.499-0.028,0.999-0.056,1.495-0.056c0.431,0,1.404,0.028,2.104,0.056l0.059-1.164h-0.087l-0.223,0.491
		c-0.132,0.289-0.181,0.348-0.543,0.348h-1.406v-0.452v-2.728c0-0.741,0.021-0.792,0.181-0.839l0.658-0.205v-0.101
		c-0.442,0.026-0.797,0.057-1.166,0.057s-0.725-0.031-1.072-0.057v0.101l0.611,0.205c0.155,0.047,0.181,0.099,0.181,0.781V297.68
		L160.356,297.68z"/>
	<path fill-rule="evenodd" clip-rule="evenodd" fill="#000100" d="M167.356,296.798h-1.629l0.832-1.919L167.356,296.798
		L167.356,296.798z M164.177,298.623c0.268-0.028,0.534-0.056,0.804-0.056c0.29,0,0.569,0.028,0.854,0.056v-0.101l-0.621-0.223
		c0.099-0.404,0.216-0.835,0.409-1.202c0.306-0.009,0.602-0.017,0.905-0.017c0.306,0,0.616,0.007,0.921,0.017
		c0.104,0.216,0.332,0.896,0.421,1.202c-0.218,0.087-0.529,0.181-0.71,0.223v0.101c0.325-0.028,0.642-0.056,0.969-0.056
		c0.386,0,0.762,0.028,1.145,0.056v-0.101l-0.606-0.211c-0.616-1.467-1.27-2.975-1.848-4.481h-0.16
		c-0.52,1.305-1.302,2.97-1.933,4.453c-0.171,0.094-0.378,0.176-0.55,0.24V298.623L164.177,298.623z"/>
	<path fill="#000100" d="M170.535,298.505c0.412,0.16,0.722,0.204,1.07,0.204c1.427,0,1.9-0.724,1.9-1.354
		c0-1.5-2.269-1.208-2.269-2.347c0-0.484,0.421-0.839,0.877-0.839c0.247,0,0.484,0.042,0.729,0.134l0.285,0.807h0.078l0.047-0.99
		c-0.306-0.139-0.767-0.233-1.072-0.233c-0.783,0-1.594,0.428-1.594,1.303c0,1.364,2.267,1.272,2.267,2.304
		c0,0.672-0.529,0.934-1.107,0.934c-0.181,0-0.522-0.042-0.74-0.167l-0.245-0.936h-0.101L170.535,298.505L170.535,298.505z"/>
	<path fill="#000100" d="M113.409,310.482h0.433v-1.533c0-0.794,0.174-1.939,0.174-2.262c-1.035-0.171-2.351-0.301-3.579-0.301
		c-4.383,0-8.827,2.455-8.827,7.571c0,5.091,3.602,6.962,8.133,6.962c1.427,0,2.868-0.343,4.408-0.687l0.066-4.011h-0.439
		l-0.995,2.436c-0.343,0.842-1.895,1.096-2.673,1.096c-3.301,0-4.7-3.169-4.7-6.036c0-3.169,1.42-6.041,4.896-6.041
		c1.552,0,1.963,0.301,2.219,0.931L113.409,310.482L113.409,310.482z"/>
	<path fill-rule="evenodd" clip-rule="evenodd" fill="#000100" d="M120.547,316.532c0,2.14,0,2.554-0.557,2.789l-1.312,0.555v0.25
		c1.077-0.066,2.156-0.141,3.233-0.141c1.082,0,2.159,0.075,3.238,0.141v-0.25l-1.26-0.555c-0.306-0.146-0.412-0.197-0.466-0.578
		c-0.108-0.752-0.143-1.688-0.143-2.511v-4.047c0-2.14,0-2.553,0.557-2.786l1.312-0.557v-0.251c-1.079,0.07-2.156,0.146-3.238,0.146
		c-1.077,0-2.156-0.075-3.233-0.146v0.251l1.312,0.557c0.557,0.233,0.557,0.646,0.557,2.786V316.532L120.547,316.532z"/>
	<path fill-rule="evenodd" clip-rule="evenodd" fill="#000100" d="M141.6,320.412c-0.054-2.746-0.054-5.478-0.054-6.52
		c0-1.079,0.092-3.614,0.108-3.865c0.019-0.36,0.165-0.449,0.306-0.522l1.441-0.666v-0.249c-0.773,0.068-1.563,0.141-2.375,0.141
		c-0.882,0-1.761-0.073-2.607-0.141v0.249l1.369,0.593c0.16,0.073,0.268,0.146,0.303,0.324c0.092,0.395,0.165,1.42,0.165,2.605
		v3.828c-2.356-2.443-4.55-4.959-6.706-7.599c-0.627,0.068-1.241,0.141-1.977,0.141c-0.755,0-1.637-0.073-2.5-0.141v0.249
		l1.312,0.56c0.306,0.125,0.433,0.306,0.468,0.663c0.073,0.811,0.092,1.223,0.092,2.121v4.35c0,1.242-0.038,1.956-0.092,2.281
		c-0.035,0.235-0.089,0.343-0.468,0.503l-1.312,0.56v0.25c0.828-0.071,1.672-0.141,2.5-0.141c0.863,0,1.726,0.07,2.591,0.141v-0.25
		l-1.227-0.503c-0.428-0.184-0.52-0.249-0.574-0.56c-0.073-0.357-0.127-1.133-0.127-2.281v-4.98c2.678,2.988,5.41,5.84,8.02,8.859
		H141.6L141.6,320.412z"/>
	<path fill="#000100" d="M156.303,311.717h0.36v-1.277c0-0.665,0.146-1.615,0.146-1.888c-0.863-0.141-1.958-0.25-2.984-0.25
		c-3.649,0-7.354,2.048-7.354,6.309c0,4.244,3.005,5.805,6.779,5.805c1.187,0,2.391-0.292,3.675-0.579l0.054-3.338h-0.367
		l-0.826,2.031c-0.287,0.701-1.582,0.912-2.229,0.912c-2.753,0-3.922-2.638-3.922-5.031c0-2.641,1.188-5.032,4.082-5.032
		c1.293,0,1.636,0.251,1.851,0.771L156.303,311.717L156.303,311.717z"/>
	<path fill-rule="evenodd" clip-rule="evenodd" fill="#000100" d="M161.603,314.43c0,3.706,2.426,5.986,6.073,5.986
		c3.849,0,6.616-2.229,6.616-6.182c0-3.632-2.624-5.932-6.219-5.932C164.462,308.303,161.603,310.694,161.603,314.43L161.603,314.43
		z M164.767,313.981c0-2.191,0.555-4.709,3.16-4.709c2.607,0,3.2,2.84,3.2,5.535c0,0.973-0.071,4.636-3.214,4.636
		C165.609,319.443,164.767,317.002,164.767,313.981L164.767,313.981z"/>
	<path fill-rule="evenodd" clip-rule="evenodd" fill="#000100" d="M227.953,305.872l1.382,0.604
		c0.322,0.148,0.386,0.258,0.583,0.646c1.42,2.977,4.053,9.363,5.304,12.852h0.821h0.818c1.211-3.602,3.538-8.625,5.026-12.034
		c0.473-1.098,0.581-1.251,0.969-1.423l1.404-0.646v-0.301c-0.885,0.087-1.75,0.169-2.676,0.169c-1.035,0-2.051-0.082-3.085-0.169
		v0.301l1.358,0.583c0.28,0.108,0.409,0.28,0.409,0.452c0,0.475-2.111,6.041-3.214,8.476l-0.56-1.204
		c-0.623-1.338-2.716-7.012-2.716-7.249c0-0.214,0.127-0.346,0.301-0.412l1.615-0.646v-0.301c-1.27,0.087-2.565,0.169-3.837,0.169
		c-1.295,0-2.612-0.082-3.905-0.169V305.872L227.953,305.872z"/>
	<path fill-rule="evenodd" clip-rule="evenodd" fill="#000100" d="M247.656,316.73c0,2.14,0,2.553-0.557,2.789l-1.31,0.555v0.254
		c1.076-0.075,2.153-0.146,3.232-0.146c1.077,0,2.158,0.071,3.235,0.146v-0.254L251,319.519c-0.306-0.146-0.414-0.203-0.466-0.579
		c-0.107-0.752-0.146-1.688-0.146-2.516v-4.042c0-2.137,0-2.556,0.558-2.789l1.312-0.555v-0.254
		c-1.077,0.073-2.158,0.146-3.235,0.146c-1.079,0-2.156-0.073-3.232-0.146v0.254l1.31,0.555c0.557,0.233,0.557,0.651,0.557,2.789
		V316.73L247.656,316.73z"/>
	<path fill-rule="evenodd" clip-rule="evenodd" fill="#000100" d="M266.471,316.584h-0.254l-0.755,1.98
		c-0.16,0.433-0.412,0.465-1.74,0.465h-3.419c-0.105-2.224-0.159-4.42-0.159-7.293c0-1.891,0.091-1.997,0.433-2.142l1.417-0.555
		v-0.254c-1.06,0.073-2.137,0.146-3.214,0.146c-1.081,0-2.158-0.073-3.237-0.146v0.254l1.437,0.555
		c0.341,0.127,0.433,0.414,0.433,2.789v4.348c0,1.133,0.019,1.961-0.019,2.172c-0.036,0.202-0.182,0.306-0.469,0.452
		c-0.468,0.235-0.917,0.484-1.382,0.719v0.254c1.079-0.075,2.156-0.146,5.355-0.146c3.2,0,4.277,0.071,5.359,0.146L266.471,316.584
		L266.471,316.584z"/>
	<path fill-rule="evenodd" clip-rule="evenodd" fill="#000100" d="M279.674,316.584h-0.254l-0.755,1.98
		c-0.162,0.433-0.411,0.465-1.74,0.465h-3.418c-0.106-2.224-0.16-4.42-0.16-7.293c0-1.891,0.092-1.997,0.433-2.142l1.418-0.555
		v-0.254c-1.061,0.073-2.138,0.146-3.22,0.146c-1.076,0-2.153-0.073-3.232-0.146v0.254l1.437,0.555
		c0.341,0.127,0.433,0.414,0.433,2.789v4.348c0,1.133,0.019,1.961-0.019,2.172c-0.035,0.202-0.182,0.306-0.468,0.452
		c-0.469,0.235-0.917,0.484-1.383,0.719v0.254c1.079-0.075,2.156-0.146,5.356-0.146c3.197,0,4.276,0.071,5.355,0.146
		L279.674,316.584L279.674,316.584z"/>
	<path fill="#000100" d="M305.822,308.947c-1.096-0.271-2.213-0.449-3.021-0.449c-2.876,0-5.088,0.973-5.088,3.668
		c0,3.576,5.591,2.984,5.591,5.626c0,1.256-1.131,1.848-2.48,1.848c-0.538,0-1.724-0.306-1.869-0.682l-0.755-2.05h-0.306
		l-0.108,3.113c0.666,0.25,1.799,0.592,3.955,0.592c1.618,0,4.62-0.79,4.62-3.635c0-3.809-5.591-3.019-5.591-5.749
		c0-1.204,1.009-1.759,2.12-1.759c0.865,0,1.675,0.268,1.742,0.466l0.774,2.102h0.308L305.822,308.947L305.822,308.947z"/>
	<path fill-rule="evenodd" clip-rule="evenodd" fill="#000100" d="M295.744,320.017l-1.265-0.494
		c-0.296-0.122-0.355-0.211-0.533-0.531c-1.306-2.44-3.718-7.672-4.865-10.539h-0.75h-0.752c-1.105,2.954-3.243,7.075-4.604,9.871
		c-0.435,0.898-0.536,1.025-0.891,1.162l-1.286,0.531v0.25c0.811-0.071,1.604-0.141,2.452-0.141c0.95,0,1.876,0.07,2.828,0.141
		v-0.25l-1.248-0.475c-0.257-0.089-0.374-0.23-0.374-0.372c0-0.39,1.936-4.949,2.944-6.948l0.517,0.99
		c0.569,1.096,2.49,5.746,2.49,5.939c0,0.179-0.117,0.282-0.277,0.334l-1.483,0.531v0.25c1.166-0.071,2.354-0.141,3.521-0.141
		c1.183,0,2.39,0.07,3.576,0.141V320.017L295.744,320.017z"/>
	<path fill="#E8C422" d="M222.67,321.216l-3.144-3.174c-0.151-0.146-0.275-0.16-0.113-0.287c1.152-0.894,2.671-1.265,3.612-2.045
		c1.084-0.896-0.296-0.625-0.752-0.423l-1.002,0.449l-0.268,0.105l-1.855,0.851l-0.035-0.258c0.39-5.469,0.028-3.508,1.604-3.01
		l2.904,1.101c-0.012,0.541-0.063,0.924-0.063,1.394C223.556,317.689,223.126,319.509,222.67,321.216L222.67,321.216z"/>
	<path fill="#E8C422" d="M219.54,327.752l-0.143,0.07l-0.155-0.357l-0.224-0.837l-0.957-2.638c0.698-0.804,2.074-0.489,3.084-0.818
		c0.233-0.075,0.581-0.226,0.786-0.071C221.367,324.87,220.325,326.106,219.54,327.752L219.54,327.752z"/>
	<path fill="#E8C422" d="M223.64,313.781c-9.245-2.041,5.493-4.923-4.954-7.783c-2.104-0.576,0.252-2.591,1.234-4.627
		c0.24-0.499,1.82,2.689,2.037,2.995c1.523,2.161,1.446,5.53,1.61,8.042l0.08,1.133L223.64,313.781L223.64,313.781z"/>
	<path fill="#E8C422" d="M221.666,321.526c-1.425,0.654-5.3,3.094-4.131,0.658c0.461-0.969,0.884-2.389,1.112-3.466
		c0.04-0.188,0.333,0.202,0.472,0.339l0.736,0.804L221.666,321.526L221.666,321.526z"/>
	<path fill="#FFFFFF" d="M218.966,329.916c-0.044-0.028-0.002-0.052,0.017-0.075l0.042,0.019
		C218.992,329.874,219.018,329.93,218.966,329.916L218.966,329.916z"/>
	<path fill="#E8C422" d="M215.176,327.959c0,0-2.89-0.738-2.567,3.442l0.186,1.693c-0.028,0.399-1.199-0.268-1.408-0.419
		l-2.344-1.604l-0.026-0.028c-1.456-0.983-4.519,2.77-5.711,3.894c-0.581-0.235-2.72-2.629-3.25-3.23
		c-0.475-0.541-0.868-1.072-1.493-1.562l-3.887,2.544l-0.186,0.085c-0.915-1.016-0.754-5.305-2.4-5.361
		c-0.619-0.019-5.119,1.298-5.253,0.776c-0.125-0.489,0.748-1.825,0.219-2.295l-0.084,0.15c0,0-0.663,1.773-1.023,1.317
		c-7.43-9.504,4.265-1.886,7.056-0.174c1.352,0.833,5.22,1.876,5.22,1.876s4.78,0.865,7.359,0.574
		c5.267-0.447,10.518-4.646,11.326-5.323l0.017-0.028c0.538,1.298,1.07,2.563,1.789,3.762
		C218.931,328.411,215.275,327.969,215.176,327.959L215.176,327.959z"/>
	<path fill="#E8C422" d="M222.206,308.399c-1.013,0.458-1.926,1.244-2.667,2.05c-0.333,0.371-2.567-4.345-0.978-3.802
		C219.27,306.89,222.801,308.131,222.206,308.399L222.206,308.399z"/>
	<path fill="#E8C422" d="M218.406,329.403l-2.76,2.398c-2.36,2.14-4.839-3.771,1.371-3.057
		C217.509,328.801,219.176,328.707,218.406,329.403L218.406,329.403z"/>
	<polygon fill="#000100" points="216.227,332.319 216.22,332.347 216.192,332.347 216.197,332.319 216.227,332.319 	"/>
	<path fill="#E8C422" d="M219.302,301.11l-1.411,2.501c-1.246,2.314-1.568-0.658-3.254-1.986
		C213.337,300.605,218.994,300.958,219.302,301.11L219.302,301.11z"/>
	<path fill="#E8C422" d="M211.531,333.748c-0.745,0.301-1.714,0.687-2.527,0.79c-0.865,0.108-5.958,1.19-4.99,0.409
		c1.392-1.119,2.763-2.563,4.385-3.343C208.543,331.533,211.955,333.579,211.531,333.748L211.531,333.748z"/>
	<path fill="#7B5296" d="M213.605,316.273c-3.376,10.049-17.75,10.271-22.635,1.524c-0.188-0.339-1.472-2.605-1.23-2.808
		c0.402-0.338,1.754-0.964,2.276-1.232l0.828-0.489l0.228-0.075c0.545,3.442,1.587,4.623,4.128,6.772
		c3.774,3.197,7.837,1.359,11.441-1.444c2.572-2.003,3.134-5.735,2.286-8.761c-0.774-2.751-4.336-4.841-7.028-5.232
		c-2.932-0.416-5.344,0-7.907,1.78c-0.933,0.651-3.054,3.813-3.404,3.63l-0.649-0.348c-3.024-1.625-3.264-0.938-0.48-4.202
		C199.858,295.54,217.774,303.845,213.605,316.273L213.605,316.273z"/>
	<polygon fill="#000100" points="210.288,323.854 210.323,323.821 210.314,323.859 210.288,323.854 	"/>
	<path fill="#E8C422" d="M201.92,335.079c-3.002-0.146-10.12-1.237-3.454-3.739C199.413,332.747,201.261,333.513,201.92,335.079
		L201.92,335.079z"/>
	<path fill="#E8C422" d="M192.207,328.552c0.35,0.513,0.79,1.218,0.915,1.843c0.872,4.331-1.958,2.046-4.131-0.042
		C186.55,327.997,191.003,328.063,192.207,328.552L192.207,328.552z"/>
	<path fill="#FFFFFF" d="M190.083,324.31l0.007-0.028l0.052,0.047C190.123,324.324,190.093,324.333,190.083,324.31L190.083,324.31z"
		/>
	<path fill="#FFFFFF" d="M189.935,324.258l0.007-0.042l0.026,0.004C189.966,324.235,189.954,324.258,189.935,324.258
		L189.935,324.258z"/>
	<polygon fill="#FFFFFF" points="189.924,323.948 189.914,323.995 189.924,323.948 	"/>
	<path fill="#FFFFFF" d="M189.75,324.089l-0.01-0.094h0.057C189.766,324.019,189.775,324.061,189.75,324.089L189.75,324.089z"/>
	<path fill="#FFFFFF" d="M189.359,323.68l0.017-0.146c0.023,0.052,0.054,0.094,0.092,0.123
		C189.456,323.699,189.399,323.685,189.359,323.68L189.359,323.68z"/>
	<path fill="#FFFFFF" d="M189.329,323.468h-0.014l0.004-0.038l0.031,0.005C189.347,323.445,189.347,323.468,189.329,323.468
		L189.329,323.468z"/>
	<path fill="#FFFFFF" d="M189.166,323.553c0.026-0.028,0.042-0.118,0.075-0.08C189.251,323.525,189.199,323.525,189.166,323.553
		L189.166,323.553z"/>
	<polygon fill="#FFFFFF" points="188.776,322.697 188.814,322.66 188.804,322.697 188.776,322.697 	"/>
	<path fill="#FFFFFF" d="M188.581,322.73c-0.021-0.014-0.002-0.042-0.002-0.065h0.026L188.581,322.73L188.581,322.73z"/>
	<path fill="#E8C422" d="M184.756,318.333c-2.326,1.947-2.124,4.373-3.398,1.166c-1.272-3.202-1.723-3.894,1.049-1.979l0.616,0.353
		c1.314,0.828,2.325,0.447,0.999-0.503c-7.39-5.323-3.348-1.9,1.592-6.167c0.536-0.722-1.676-1.411-2.048-2.215
		c2.335,0.169,3.28,0.482,5.509,2.227l-4.263,2.328c-3.87,1.961,6.393,10.439,1.347,8.972c-0.237-0.066-2.372-1.082-2.551-1.208
		c-0.397-0.292,1.204-1.364,1.563-1.857C185.402,319.133,185.235,318.347,184.756,318.333L184.756,318.333z"/>
	<path fill="#E8C422" d="M181.906,303.294c0.118-0.016,4.371-0.639,4.494-0.625c0.04,0.054,0.122,0.146,0.026,0.221
		c-0.12,0.059-1.775,2.598-1.86,3.031c-0.148,0.299-0.402,1.317-0.558,1.401c-0.324-0.303-0.849-1.103-0.896-1.126
		c-0.202-0.334-1.644-2.631-1.794-2.808"/>
	<path fill="#E8C422" d="M181.196,302.968c2.304-4.399,3.41-5.558,3.503-5.535c0.165,0.169,1.523,4.674,1.474,4.728
		C186.06,302.138,181.196,302.968,181.196,302.968L181.196,302.968z"/>
	<path fill="#E8C422" d="M181.936,307.858c-0.148,0.007-1.547-1.023-1.623-1.044c0.01-0.012-0.009-0.033-0.023-0.031
		c-0.075-0.063,0.583-3.118,0.715-2.911c-0.002,0.153,2.1,3.492,2.09,3.567C183.015,307.506,182.122,307.727,181.936,307.858
		L181.936,307.858z"/>
	<path fill="#84BD3F" d="M203.864,316.626c-5.516,0.917-5.532-8.728,0.012-7.108l0.059,0.082
		C207.208,311.268,206.387,314.651,203.864,316.626L203.864,316.626z"/>
	<path fill="#E8C422" d="M200.415,295.279c-1.401-1.131-2.024-2.923-2.956-4.42c-0.014-0.021-0.061-0.08-0.066-0.094
		c-4.536,0.365-8.493,2.252-12.316,6.248v0.15c4.942,0.376,8.307,2.873,0.209,0.343l1.456,4.902l0.056,0.009
		c1.975-2.015,5.925-5.638,8.768-5.848l0.104-0.077l-5.018-2.646l-0.256,4.841l-0.355-0.36c0.009-0.794-0.195-4.291,0.23-4.933
		c0.482-0.727,5.022,2.617,5.389,2.461c0.174-0.073,0.703-2.193,0.8-2.49c0.202-0.625,0.458-1.211,0.428-1.881
		c0.9,0.529,0.047,3.009-0.28,3.919c0,0-0.701,1.056-0.564,1.042C197.52,296.26,199.074,295.78,200.415,295.279L200.415,295.279z"/>
	<path fill="#E8C422" d="M201.221,294.98c1.335-0.548,2.307-1.062,2.48-1.227c0.482-0.449,2.196-2.22,2.678-2.041
		c0.346,0.129-0.564,1.208-0.724,1.347c-0.153,0.134-3.518,2.208-2.723,2.88l3.59,0.828c0.076,0.023,0.941,0.426,1.056,0.32
		c0.113-0.104-0.193-0.818-0.226-0.926l-0.884-2.941c-0.014-0.031-0.348-0.562-0.139-0.562c0.672,0,1.907,3.696,2.09,4.782
		c2.124,2.137,5.183,3.078,7.945,3.188l2.711,0.009l0.642-0.087c0.028-0.524-4.777-5.053-5.413-5.25l0.01,0.11l-0.144,0.974
		c-0.346,0.952-0.395,2.163-0.738,3.266c-0.019,0.056-0.193,0.552-0.383,0.247c-0.767-1.237,1.533-3.882-0.903-3.574
		c-4.162,0.388-4.04,0.477,1.382-1.456c0.543-0.28-2.394-1.394-2.685-1.594c-1.545-1.056-4.34-1.641-6.245-2.01
		c-2.264-0.442-4.354-0.661-6.362-0.578c0.221,0.237,0.402,0.896,0.574,1.131C199.613,292.895,200.49,293.85,201.221,294.98
		L201.221,294.98z"/>
	<path fill-rule="evenodd" clip-rule="evenodd" fill="#C74726" d="M204.292,328.754l-0.202,0.01l-0.713-0.042l-1.596-0.24
		c-3.151-0.513-5.723-0.597-8.568-2.459c-4.061-2.652-6.617-6.748-8.371-11.277l0.066-0.407c1.417-0.486,5.203-2.066,5.681-3.391
		c-14.708-4.253,6.783-17.472,13.609-14.016c4.759,2.41,9.266,3.028,12.161,8.66C221.247,315.098,216.114,328.787,204.292,328.754
		L204.292,328.754z M189.136,315.263c0.679-1.51,4.846-3.198,4.025-3.816l-4.226-2.544c-1.606-4.27,7.606-8.796,11.265-8.897
		c1.606-0.045,3.604-0.224,6.593,0.875c4.9,1.794,10.614,9.431,7.715,16.076C209.357,328.773,191.875,326.916,189.136,315.263
		L189.136,315.263z"/>
	<path fill-rule="evenodd" clip-rule="evenodd" fill="#7093CB" d="M209.695,315.359c-3.478,6.722-11.596,5.801-14.987,0.56
		c-2.055-3.179-0.099-7.449,3.221-9.84C203.488,302.082,212.759,309.438,209.695,315.359L209.695,315.359z M206.664,312.18
		c0.01,0.108-0.054,0.346-0.065,0.538c-0.423,6.885-8.185,5.526-7.59,0.722c-0.251,0.228-0.994,0.868-1.065,0.287
		c0.287-4.272,6.591-7.418,8.563-2.8C206.909,311.872,206.916,312.218,206.664,312.18L206.664,312.18z"/>
</g>
</svg>
