<?xml version="1.0" encoding="UTF-8"?>
<svg xmlns="http://www.w3.org/2000/svg" xmlns:xlink="http://www.w3.org/1999/xlink" width="85.04pt" height="43.73pt" viewBox="0 0 85.04 43.73" version="1.1">
<defs>
<clipPath id="clip1">
  <path d="M 41 38 L 46 38 L 46 43.730469 L 41 43.730469 Z M 41 38 "/>
</clipPath>
<clipPath id="clip2">
  <path d="M 0 38 L 5 38 L 5 43.730469 L 0 43.730469 Z M 0 38 "/>
</clipPath>
<clipPath id="clip3">
  <path d="M 4 38 L 6 38 L 6 43.730469 L 4 43.730469 Z M 4 38 "/>
</clipPath>
<clipPath id="clip4">
  <path d="M 6 38 L 10 38 L 10 43.730469 L 6 43.730469 Z M 6 38 "/>
</clipPath>
<clipPath id="clip5">
  <path d="M 10 38 L 15 38 L 15 43.730469 L 10 43.730469 Z M 10 38 "/>
</clipPath>
<clipPath id="clip6">
  <path d="M 14 38 L 18 38 L 18 43.730469 L 14 43.730469 Z M 14 38 "/>
</clipPath>
<clipPath id="clip7">
  <path d="M 16 38 L 22 38 L 22 43.730469 L 16 43.730469 Z M 16 38 "/>
</clipPath>
<clipPath id="clip8">
  <path d="M 21 38 L 27 38 L 27 43.730469 L 21 43.730469 Z M 21 38 "/>
</clipPath>
<clipPath id="clip9">
  <path d="M 26 38 L 29 38 L 29 43.730469 L 26 43.730469 Z M 26 38 "/>
</clipPath>
<clipPath id="clip10">
  <path d="M 28 38 L 34 38 L 34 43.730469 L 28 43.730469 Z M 28 38 "/>
</clipPath>
<clipPath id="clip11">
  <path d="M 33 38 L 39 38 L 39 43.730469 L 33 43.730469 Z M 33 38 "/>
</clipPath>
<clipPath id="clip12">
  <path d="M 48 38 L 52 38 L 52 43.730469 L 48 43.730469 Z M 48 38 "/>
</clipPath>
<clipPath id="clip13">
  <path d="M 51 38 L 57 38 L 57 43.730469 L 51 43.730469 Z M 51 38 "/>
</clipPath>
<clipPath id="clip14">
  <path d="M 56 38 L 61 38 L 61 43.730469 L 56 43.730469 Z M 56 38 "/>
</clipPath>
<clipPath id="clip15">
  <path d="M 60 38 L 66 38 L 66 43.730469 L 60 43.730469 Z M 60 38 "/>
</clipPath>
<clipPath id="clip16">
  <path d="M 65 38 L 71 38 L 71 43.730469 L 65 43.730469 Z M 65 38 "/>
</clipPath>
<clipPath id="clip17">
  <path d="M 71 38 L 77 38 L 77 43.730469 L 71 43.730469 Z M 71 38 "/>
</clipPath>
<clipPath id="clip18">
  <path d="M 76 38 L 80 38 L 80 43.730469 L 76 43.730469 Z M 76 38 "/>
</clipPath>
<clipPath id="clip19">
  <path d="M 80 38 L 85.039063 38 L 85.039063 43.730469 L 80 43.730469 Z M 80 38 "/>
</clipPath>
</defs>
<g id="surface1">
<path style=" stroke:none;fill-rule:nonzero;fill:rgb(93.699646%,24.299622%,19.999695%);fill-opacity:1;" d="M 23.402344 22.105469 L 42.519531 22.105469 L 32.960938 38.664063 Z M 23.402344 22.105469 "/>
<g clip-path="url(#clip1)" clip-rule="nonzero">
<path style=" stroke:none;fill-rule:evenodd;fill:rgb(13.699341%,12.199402%,12.5%);fill-opacity:1;" d="M 42.359375 39.75 L 42.359375 40.582031 L 43.824219 40.582031 L 43.824219 41.671875 L 42.359375 41.671875 L 42.359375 42.507813 L 42.90625 42.507813 C 43.859375 42.507813 44.128906 41.84375 44.128906 41.132813 C 44.128906 40.851563 44.070313 40.492188 43.886719 40.207031 C 43.738281 39.984375 43.480469 39.75 42.910156 39.75 Z M 41.082031 43.628906 L 41.082031 38.625 L 42.734375 38.625 C 43.296875 38.625 44.296875 38.625 44.949219 39.558594 C 45.292969 40.03125 45.40625 40.566406 45.40625 41.113281 C 45.40625 42.480469 44.730469 43.628906 42.832031 43.628906 L 41.082031 43.628906 "/>
</g>
<g clip-path="url(#clip2)" clip-rule="nonzero">
<path style=" stroke:none;fill-rule:evenodd;fill:rgb(13.699341%,12.199402%,12.5%);fill-opacity:1;" d="M 0 43.628906 L 1.75 43.628906 C 3.648438 43.628906 4.324219 42.480469 4.324219 41.113281 C 4.324219 40.566406 4.210938 40.03125 3.867188 39.558594 C 3.21875 38.625 2.21875 38.625 1.65625 38.625 L 0 38.625 Z M 1.277344 39.75 L 1.832031 39.75 C 2.398438 39.75 2.65625 39.984375 2.804688 40.207031 C 2.988281 40.492188 3.050781 40.851563 3.050781 41.132813 C 3.050781 41.84375 2.777344 42.507813 1.824219 42.507813 L 1.277344 42.507813 L 1.277344 39.75 "/>
</g>
<g clip-path="url(#clip3)" clip-rule="nonzero">
<path style=" stroke:none;fill-rule:evenodd;fill:rgb(13.699341%,12.199402%,12.5%);fill-opacity:1;" d="M 4.53125 43.628906 L 5.808594 43.628906 L 5.808594 38.625 L 4.53125 38.625 L 4.53125 43.628906 "/>
</g>
<g clip-path="url(#clip4)" clip-rule="nonzero">
<path style=" stroke:none;fill-rule:evenodd;fill:rgb(13.699341%,12.199402%,12.5%);fill-opacity:1;" d="M 6.164063 43.628906 L 7.386719 43.628906 L 7.386719 42.0625 L 7.941406 42.0625 C 8.71875 42.0625 9.058594 41.917969 9.402344 41.628906 C 9.71875 41.359375 9.929688 40.824219 9.929688 40.316406 C 9.929688 39.808594 9.734375 39.316406 9.34375 38.992188 C 9.070313 38.769531 8.726563 38.625 7.800781 38.625 L 6.164063 38.625 Z M 7.386719 39.75 L 7.863281 39.75 C 8.136719 39.75 8.707031 39.75 8.707031 40.335938 C 8.707031 40.9375 8.152344 40.9375 7.910156 40.9375 L 7.386719 40.9375 L 7.386719 39.75 "/>
</g>
<g clip-path="url(#clip5)" clip-rule="nonzero">
<path style=" stroke:none;fill-rule:evenodd;fill:rgb(13.699341%,12.199402%,12.5%);fill-opacity:1;" d="M 10.195313 38.625 L 10.195313 41.648438 C 10.195313 42.386719 10.28125 42.738281 10.695313 43.1875 C 11.105469 43.636719 11.769531 43.722656 12.136719 43.722656 C 12.757813 43.722656 13.210938 43.515625 13.535156 43.183594 C 13.851563 42.859375 14.035156 42.484375 14.035156 41.648438 L 14.035156 38.625 L 12.757813 38.625 L 12.757813 41.648438 C 12.757813 42.046875 12.757813 42.601563 12.121094 42.601563 C 11.492188 42.601563 11.472656 41.984375 11.472656 41.648438 L 11.472656 38.625 L 10.195313 38.625 "/>
</g>
<g clip-path="url(#clip6)" clip-rule="nonzero">
<path style=" stroke:none;fill-rule:evenodd;fill:rgb(13.699341%,12.199402%,12.5%);fill-opacity:1;" d="M 15.320313 43.628906 L 16.597656 43.628906 L 16.597656 39.75 L 17.578125 39.75 L 17.578125 38.625 L 14.335938 38.625 L 14.335938 39.75 L 15.320313 39.75 L 15.320313 43.628906 "/>
</g>
<g clip-path="url(#clip7)" clip-rule="nonzero">
<path style=" stroke:none;fill-rule:evenodd;fill:rgb(13.699341%,12.199402%,12.5%);fill-opacity:1;" d="M 20.234375 42.90625 L 20.476563 43.628906 L 21.863281 43.628906 L 19.875 38.625 L 18.867188 38.625 L 16.859375 43.628906 L 18.234375 43.628906 L 18.496094 42.90625 Z M 19.359375 40.179688 L 19.382813 40.179688 L 19.894531 41.890625 L 18.847656 41.890625 L 19.359375 40.179688 "/>
</g>
<g clip-path="url(#clip8)" clip-rule="nonzero">
<path style=" stroke:none;fill-rule:evenodd;fill:rgb(13.699341%,12.199402%,12.5%);fill-opacity:1;" d="M 25.175781 41.757813 C 25.09375 41.933594 24.769531 42.601563 23.972656 42.601563 C 23.140625 42.601563 22.625 41.871094 22.625 41.113281 C 22.625 40.40625 23.105469 39.652344 23.964844 39.652344 C 24.65625 39.652344 25.03125 40.15625 25.175781 40.527344 L 26.511719 40.527344 C 26.378906 39.742188 25.539063 38.53125 23.972656 38.53125 C 22.335938 38.53125 21.347656 39.84375 21.347656 41.121094 C 21.347656 42.472656 22.417969 43.722656 23.984375 43.722656 C 25.195313 43.722656 26.222656 42.9375 26.511719 41.757813 L 25.175781 41.757813 "/>
</g>
<g clip-path="url(#clip9)" clip-rule="nonzero">
<path style=" stroke:none;fill-rule:evenodd;fill:rgb(13.699341%,12.199402%,12.5%);fill-opacity:1;" d="M 26.808594 43.628906 L 28.089844 43.628906 L 28.089844 38.625 L 26.808594 38.625 L 26.808594 43.628906 "/>
</g>
<g clip-path="url(#clip10)" clip-rule="nonzero">
<path style=" stroke:none;fill-rule:evenodd;fill:rgb(13.699341%,12.199402%,12.5%);fill-opacity:1;" d="M 28.542969 40.121094 C 28.394531 40.484375 28.347656 40.855469 28.347656 41.1875 C 28.347656 42.472656 29.402344 43.722656 30.976563 43.722656 C 32.53125 43.722656 33.628906 42.519531 33.628906 41.128906 C 33.628906 39.734375 32.527344 38.53125 30.984375 38.53125 C 29.585938 38.53125 28.808594 39.472656 28.542969 40.121094 Z M 29.625 41.113281 C 29.625 40.410156 30.105469 39.652344 30.992188 39.652344 C 31.910156 39.652344 32.347656 40.484375 32.347656 41.132813 C 32.347656 41.777344 31.910156 42.601563 31.003906 42.601563 C 30.148438 42.601563 29.625 41.886719 29.625 41.113281 "/>
</g>
<g clip-path="url(#clip11)" clip-rule="nonzero">
<path style=" stroke:none;fill-rule:evenodd;fill:rgb(13.699341%,12.199402%,12.5%);fill-opacity:1;" d="M 33.890625 43.628906 L 35.113281 43.628906 L 35.078125 40.59375 L 35.09375 40.585938 L 36.996094 43.628906 L 38.105469 43.628906 L 38.105469 38.625 L 36.882813 38.625 L 36.9375 41.757813 L 36.921875 41.769531 L 34.988281 38.625 L 33.890625 38.625 L 33.890625 43.628906 "/>
</g>
<g clip-path="url(#clip12)" clip-rule="nonzero">
<path style=" stroke:none;fill-rule:evenodd;fill:rgb(13.699341%,12.199402%,12.5%);fill-opacity:1;" d="M 48.195313 43.628906 L 51.351563 43.628906 L 51.351563 42.507813 L 49.757813 42.507813 L 51.351563 39.660156 L 51.351563 38.625 L 48.195313 38.625 L 48.195313 39.75 L 49.917969 39.75 L 48.195313 42.789063 L 48.195313 43.628906 "/>
</g>
<g clip-path="url(#clip13)" clip-rule="nonzero">
<path style=" stroke:none;fill-rule:evenodd;fill:rgb(13.699341%,12.199402%,12.5%);fill-opacity:1;" d="M 55.011719 42.90625 L 55.253906 43.628906 L 56.640625 43.628906 L 54.652344 38.625 L 53.644531 38.625 L 51.640625 43.628906 L 53.011719 43.628906 L 53.273438 42.90625 Z M 54.140625 40.179688 L 54.160156 40.179688 L 54.671875 41.890625 L 53.625 41.890625 L 54.140625 40.179688 "/>
</g>
<g clip-path="url(#clip14)" clip-rule="nonzero">
<path style=" stroke:none;fill-rule:evenodd;fill:rgb(13.699341%,12.199402%,12.5%);fill-opacity:1;" d="M 56.921875 43.628906 L 58.144531 43.628906 L 58.144531 42.011719 L 58.160156 42.011719 L 59.316406 43.628906 L 60.777344 43.628906 L 59.414063 41.925781 C 60.363281 41.769531 60.660156 40.925781 60.660156 40.351563 C 60.660156 39.835938 60.457031 39.308594 60.042969 38.984375 C 59.71875 38.734375 59.382813 38.625 58.503906 38.625 L 56.921875 38.625 Z M 58.144531 39.75 L 58.609375 39.75 C 59.105469 39.75 59.4375 39.972656 59.4375 40.425781 C 59.4375 40.667969 59.347656 41.140625 58.597656 41.140625 L 58.144531 41.140625 L 58.144531 39.75 "/>
</g>
<g clip-path="url(#clip15)" clip-rule="nonzero">
<path style=" stroke:none;fill-rule:evenodd;fill:rgb(13.699341%,12.199402%,12.5%);fill-opacity:1;" d="M 64.328125 42.90625 L 64.570313 43.628906 L 65.957031 43.628906 L 63.96875 38.625 L 62.960938 38.625 L 60.953125 43.628906 L 62.328125 43.628906 L 62.589844 42.90625 Z M 63.457031 40.179688 L 63.476563 40.179688 L 63.988281 41.890625 L 62.941406 41.890625 L 63.457031 40.179688 "/>
</g>
<g clip-path="url(#clip16)" clip-rule="nonzero">
<path style=" stroke:none;fill-rule:evenodd;fill:rgb(13.699341%,12.199402%,12.5%);fill-opacity:1;" d="M 68.011719 40.78125 L 68.011719 41.804688 L 69.503906 41.804688 C 69.367188 42.289063 68.941406 42.609375 68.304688 42.609375 C 67.675781 42.609375 66.933594 42.15625 66.933594 41.105469 C 66.933594 40.121094 67.671875 39.652344 68.300781 39.652344 C 68.839844 39.652344 69.207031 39.953125 69.402344 40.304688 L 70.835938 40.304688 C 70.558594 39.335938 69.53125 38.53125 68.335938 38.53125 C 66.859375 38.53125 65.65625 39.613281 65.65625 41.105469 C 65.65625 42.546875 66.800781 43.730469 68.3125 43.730469 C 69.699219 43.730469 70.984375 42.722656 70.984375 41.046875 C 70.984375 40.945313 70.984375 40.871094 70.976563 40.78125 L 68.011719 40.78125 "/>
</g>
<g clip-path="url(#clip17)" clip-rule="nonzero">
<path style=" stroke:none;fill-rule:evenodd;fill:rgb(13.699341%,12.199402%,12.5%);fill-opacity:1;" d="M 71.441406 40.121094 C 71.292969 40.484375 71.246094 40.855469 71.246094 41.1875 C 71.246094 42.472656 72.300781 43.722656 73.875 43.722656 C 75.429688 43.722656 76.527344 42.519531 76.527344 41.128906 C 76.527344 39.734375 75.421875 38.53125 73.882813 38.53125 C 72.484375 38.53125 71.707031 39.472656 71.441406 40.121094 Z M 72.523438 41.113281 C 72.523438 40.410156 73.003906 39.652344 73.890625 39.652344 C 74.808594 39.652344 75.246094 40.484375 75.246094 41.132813 C 75.246094 41.777344 74.808594 42.601563 73.902344 42.601563 C 73.042969 42.601563 72.523438 41.886719 72.523438 41.113281 "/>
</g>
<g clip-path="url(#clip18)" clip-rule="nonzero">
<path style=" stroke:none;fill-rule:evenodd;fill:rgb(13.699341%,12.199402%,12.5%);fill-opacity:1;" d="M 76.558594 43.628906 L 79.714844 43.628906 L 79.714844 42.507813 L 78.121094 42.507813 L 79.714844 39.660156 L 79.714844 38.625 L 76.558594 38.625 L 76.558594 39.75 L 78.28125 39.75 L 76.558594 42.789063 L 76.558594 43.628906 "/>
</g>
<g clip-path="url(#clip19)" clip-rule="nonzero">
<path style=" stroke:none;fill-rule:evenodd;fill:rgb(13.699341%,12.199402%,12.5%);fill-opacity:1;" d="M 83.410156 42.90625 L 83.65625 43.628906 L 85.039063 43.628906 L 83.050781 38.625 L 82.046875 38.625 L 80.039063 43.628906 L 81.410156 43.628906 L 81.671875 42.90625 Z M 82.539063 40.179688 L 82.558594 40.179688 L 83.074219 41.890625 L 82.027344 41.890625 L 82.539063 40.179688 "/>
</g>
<path style=" stroke:none;fill-rule:nonzero;fill:rgb(36.499023%,41.19873%,40.39917%);fill-opacity:1;" d="M 52.078125 16.554688 L 32.960938 16.554688 L 42.519531 -0.00390625 Z M 52.078125 16.554688 "/>
<path style=" stroke:none;fill-rule:nonzero;fill:rgb(36.499023%,41.19873%,40.39917%);fill-opacity:1;" d="M 61.640625 33.113281 L 42.519531 33.113281 L 52.078125 16.554688 Z M 61.640625 33.113281 "/>
</g>
</svg>
